<svg width="14" height="10" viewBox="0 0 14 10" fill="none" xmlns="http://www.w3.org/2000/svg">
<path fill-rule="evenodd" clip-rule="evenodd" d="M13.707 0.293015C13.8945 0.480543 13.9998 0.734851 13.9998 1.00002C13.9998 1.26518 13.8945 1.51949 13.707 1.70702L5.70698 9.70702C5.51945 9.89449 5.26514 9.9998 4.99998 9.9998C4.73482 9.9998 4.48051 9.89449 4.29298 9.70702L0.29298 5.70702C0.110822 5.51841 0.0100274 5.26581 0.0123059 5.00361C0.0145843 4.74142 0.119753 4.4906 0.305161 4.3052C0.490569 4.11979 0.741382 4.01462 1.00358 4.01234C1.26578 4.01006 1.51838 4.11086 1.70698 4.29302L4.99998 7.58602L12.293 0.293015C12.4805 0.105544 12.7348 0.000228882 13 0.000228882C13.2651 0.000228882 13.5195 0.105544 13.707 0.293015Z" fill="#000"/>
</svg>
